<?xml version="1.0" encoding="UTF-8" standalone="no"?>
<svg width="163px" height="29px" viewBox="0 0 163 29" version="1.1" xmlns="http://www.w3.org/2000/svg" xmlns:xlink="http://www.w3.org/1999/xlink">
    <!-- Generator: Sketch 41.2 (35397) - http://www.bohemiancoding.com/sketch -->
    <title>Octopus Logo</title>
    <desc>Created with Sketch.</desc>
    <defs>
        <filter x="-50%" y="-50%" width="200%" height="200%" filterUnits="objectBoundingBox" id="filter-1">
            <feOffset dx="0" dy="2" in="SourceAlpha" result="shadowOffsetOuter1"></feOffset>
            <feGaussianBlur stdDeviation="2" in="shadowOffsetOuter1" result="shadowBlurOuter1"></feGaussianBlur>
            <feColorMatrix values="0 0 0 0 0   0 0 0 0 0   0 0 0 0 0  0 0 0 0.5 0" type="matrix" in="shadowBlurOuter1" result="shadowMatrixOuter1"></feColorMatrix>
            <feMerge>
                <feMergeNode in="shadowMatrixOuter1"></feMergeNode>
                <feMergeNode in="SourceGraphic"></feMergeNode>
            </feMerge>
        </filter>
    </defs>
    <g id="Page-1" stroke="none" stroke-width="1" fill="none" fill-rule="evenodd">
        <g id="Product-Page" transform="translate(-11.000000, -17.000000)" fill="#FFFFFF">
            <g id="Nav" filter="url(#filter-1)" transform="translate(0.000000, 1.000000)">
                <g id="Octopus-Logo" transform="translate(15.000000, 18.000000)">
                    <path d="M6.49886295,12.8835708 C8.62360393,12.8835708 10.1376017,11.1276804 10.1376017,8.96165297 C10.1376017,6.79562557 8.78043454,5.03964384 6.49886295,5.03964384 C4.26218973,5.03964384 2.86012415,6.79562557 2.86012415,8.96165297 C2.86012415,11.1276804 4.35933508,12.8835708 6.49886295,12.8835708 M12.9132345,8.87526027 C12.9132345,12.401653 10.3711449,15.2603744 6.43317333,15.2603744 C2.85429902,15.2603744 0.0844913661,12.488137 0.0844913661,8.96174429 C0.0844913661,5.2527032 2.92016787,2.66284018 6.49895257,2.66284018 C10.0778269,2.66284018 12.9132345,5.34886758 12.9132345,8.87526027" id="Fill-1"></path>
                    <path d="M37.5958708,12.8835708 C39.7206118,12.8835708 41.2346096,11.1276804 41.2346096,8.96165297 C41.2346096,6.79562557 39.8774424,5.03964384 37.5958708,5.03964384 C35.3591976,5.03964384 33.957132,6.79562557 33.957132,8.96165297 C33.957132,11.1276804 35.456343,12.8835708 37.5958708,12.8835708 M44.0102424,8.87526027 C44.0102424,12.401653 41.4681528,15.2603744 37.5301812,15.2603744 C33.9513069,15.2603744 31.1814992,12.488137 31.1814992,8.96174429 C31.1814992,5.2527032 34.0171757,2.66284018 37.5959604,2.66284018 C41.1748348,2.66284018 44.0102424,5.34886758 44.0102424,8.87526027" id="Fill-3"></path>
                    <path d="M58.1601266,10.1309498 C58.1601266,10.1309498 58.1606643,5.30483105 58.1602162,4.0567032 C58.3847976,2.31040183 60.7996304,3.24720548 60.7996304,3.24720548 L60.7996304,9.75807306 L60.7996304,9.75569863 C60.7996304,11.7871142 62.1640566,12.7798995 63.847073,12.7798995 C65.530179,12.7798995 66.8945156,11.8213607 66.8945156,9.75569863 C66.8945156,9.75569863 66.9021331,5.30866667 66.901685,4.06053881 C67.1262664,2.31414612 69.5410992,3.2510411 69.5410992,3.2510411 L69.5410992,7.43706849 C69.8846031,12.5967032 74.7269047,12.9819087 74.7269047,12.9819087 C79.5483255,13.6621826 79.1242555,11.6448311 79.1242555,11.6448311 C78.9994184,10.6293973 78.2563998,10.3992603 76.9735255,10.231589 C76.1770052,10.1275708 75.4855167,10.0565205 75.4855167,10.0565205 C70.3173659,9.72327854 70.8257659,6.24930594 70.8257659,6.24930594 C70.8911867,3.3103105 73.9771648,2.86309589 73.9771648,2.86309589 C76.7032391,2.36839269 78.6287604,2.85387215 78.6287604,2.85387215 C82.8717003,3.75350685 80.7824479,5.80254795 80.4318643,5.91916895 C80.4318643,5.91916895 79.3018774,4.86455708 76.6586992,4.71305023 C73.402896,4.50154338 73.4604304,6.06775342 73.4604304,6.06775342 C73.3544129,7.20994521 74.7899954,7.4189863 74.7899954,7.4189863 L78.2793419,7.9167032 C82.4012085,8.5023653 81.8989921,11.482274 81.8989921,11.482274 C81.6282577,15.2089406 77.2705178,15.2361553 77.2705178,15.2361553 C71.3108654,15.588758 69.0672916,12.4351507 69.0672916,12.4351507 C68.2320566,14.1286667 66.5644544,15.2604475 63.7932129,15.2604475 C60.4897331,15.2603562 58.1601266,13.3727763 58.1601266,9.98638356" id="Fill-5"></path>
                    <path d="M19.4296177,2.86293151 C14.6630428,3.2096895 13.575445,7.72384475 13.6914997,9.03608219 C13.625362,11.0188219 14.9864723,15.2603744 20.2514997,15.2627489 C20.9449598,15.2497808 21.5803478,15.1861279 22.1603521,15.0769954 L22.1600833,12.670968 C21.6554472,12.7614703 21.0463172,12.8185479 20.3112745,12.8383653 C17.8542319,12.901105 16.457633,10.8463105 16.4671325,9.03553425 C16.4671325,6.9353516 18.152927,5.21087671 20.3112745,5.23279452 L24.5698975,5.23178995 L24.5803827,11.1735251 C24.5803827,11.1735251 24.2730844,16.2077717 30.5175412,15.1508767 L30.5175412,12.7536164 C27.0549008,13.5137078 27.2419325,11.2934338 27.2419325,11.2934338 L27.2419325,5.23608219 L30.5175412,5.23608219 L30.5175412,2.85927854 L27.2419325,2.85927854 L27.2419325,0.054803653 L24.5803827,0.054803653 L24.5803827,2.85927854 L19.4296177,2.86293151 Z" id="Fill-7"></path>
                    <path d="M51.0222192,12.8954703 C53.1255416,12.8954703 54.6243045,11.1395799 54.6243045,8.97355251 C54.6243045,6.80752511 53.2808487,5.05154338 51.0222192,5.05154338 C48.8081296,5.05154338 47.420134,6.80752511 47.420134,8.97355251 C47.420134,11.1395799 48.9041996,12.8954703 51.0222192,12.8954703 M47.4359963,18.8716347 C47.2114149,20.6180274 44.7965821,19.6811324 44.7965821,19.6811324 L44.7965821,8.96177169 C44.9492903,5.54186301 46.9569012,2.75647489 51.0907766,2.66286758 C54.7405384,2.58012785 57.3617602,5.3489863 57.3847919,8.87528767 C57.4090783,12.6119087 54.8380422,15.3897169 51.0388881,15.2256986 C49.6844094,15.1493516 48.3614761,14.60579 47.4472881,13.4093516 C47.4472881,13.4093516 47.4355482,17.6235982 47.4359963,18.8716347" id="Fill-9"></path>
                    <path d="M87.823321,7.38721366 C88.1980845,4.56112585 90.037498,2.74129659 92.5328375,2.74129659 C93.816214,2.74129659 94.9502061,3.22426732 95.8121982,4.13793561 C96.6034055,4.97653073 97.1015033,6.12718927 97.2206156,7.38721366 L87.823321,7.38721366 Z M96.9920026,11.9838234 C95.9616724,13.2200283 94.5360079,13.8733502 92.8691546,13.8733502 C91.3292285,13.8733502 90.0273474,13.3094673 89.1041823,12.2427795 C88.2368904,11.2404137 87.7591836,9.83339415 87.7591836,8.28067707 L87.7591836,8.0530478 L98.0067028,8.0530478 L98.0036486,7.95721366 C97.9515482,6.34582829 97.3976671,4.86948195 96.4438705,3.80029171 C95.4373448,2.67187707 94.0848904,2.07536976 92.5328375,2.07536976 C89.3628877,2.07536976 87.0621162,4.68513561 87.0621162,8.28067707 C87.0621162,11.9655649 89.4500211,14.5391844 92.8691546,14.5391844 C94.7426129,14.5391844 96.3403884,13.8268234 97.4897411,12.4790283 L97.5454346,12.4137795 L97.0551519,11.9080088 L96.9920026,11.9838234 Z" id="Fill-12"></path>
                    <path d="M108.868315,3.62576976 C107.962576,2.64082829 106.647401,2.07574049 105.260093,2.07536976 C105.259644,2.07546244 105.259195,2.07546244 105.258835,2.07536976 C103.871528,2.07574049 102.556352,2.64082829 101.650254,3.62623317 C100.786555,4.57678927 100.384215,5.80975024 100.384215,7.50658927 L100.384215,14.2722576 L101.081282,14.2722576 L101.081282,7.50658927 C101.081282,6.00642341 101.435295,4.91536 102.195242,4.07324293 C102.941625,3.25188683 104.115771,2.74148195 105.259464,2.74129659 C106.403158,2.74148195 107.577213,3.25188683 108.323417,4.07305756 C109.083543,4.91536 109.437646,6.00642341 109.437646,7.50658927 L109.437646,14.2722576 L110.134714,14.2722576 L110.134714,7.50658927 C110.134714,5.80975024 109.732373,4.57678927 108.868315,3.62576976" id="Fill-14"></path>
                    <path d="M130.695003,2.07540683 C129.307157,2.07540683 127.991622,2.64049463 127.085165,3.62617756 C126.221466,4.57673366 125.819215,5.80978732 125.819215,7.50662634 L125.819215,14.2722946 L126.516192,14.2722946 L126.516192,7.50662634 C126.516192,6.0063678 126.870295,4.91539707 127.630243,4.07328 C128.376715,3.25164585 129.55113,2.74133366 130.695003,2.74133366 L130.784832,2.74133366 L130.784832,2.07540683 L130.695003,2.07540683 Z" id="Fill-16"></path>
                    <path d="M113.235559,7.38721366 C113.610322,4.56112585 115.449736,2.74129659 117.945075,2.74129659 C119.228452,2.74129659 120.362444,3.22426732 121.224436,4.13793561 C122.015643,4.97653073 122.513741,6.12718927 122.632853,7.38721366 L113.235559,7.38721366 Z M122.40424,11.9838234 C121.37391,13.2200283 119.948246,13.8733502 118.281392,13.8733502 C116.741466,13.8733502 115.439585,13.3094673 114.51642,12.2427795 C113.649128,11.2404137 113.171421,9.83339415 113.171421,8.28067707 L113.171421,8.0530478 L123.418941,8.0530478 L123.415886,7.95721366 C123.363786,6.34582829 122.809905,4.86948195 121.856108,3.80029171 C120.849583,2.67187707 119.497128,2.07536976 117.945075,2.07536976 C114.775125,2.07536976 112.474354,4.68513561 112.474354,8.28067707 C112.474354,11.9655649 114.862259,14.5391844 118.281392,14.5391844 C120.154851,14.5391844 121.752626,13.8268234 122.901979,12.4790283 L122.957672,12.4137795 L122.46739,11.9080088 L122.40424,11.9838234 Z" id="Fill-18"></path>
                    <polygon id="Fill-20" points="154.201193 2.34232439 149.752089 12.0509537 144.766081 2.34232439 144.020237 2.34232439 149.371756 12.873978 145.78635 20.731822 146.554023 20.731822 154.968955 2.34232439"></polygon>
                    <path d="M142.23022,8.30724927 C142.23022,11.5842395 140.240254,13.8729517 137.390901,13.8729517 C134.453697,13.8729517 132.152925,11.4282541 132.152925,8.30724927 C132.152925,5.18633707 134.453697,2.74163951 137.390901,2.74163951 C140.240254,2.74163951 142.23022,5.03035171 142.23022,8.30724927 M137.390901,2.07497122 C135.742283,2.07497122 134.228138,2.72375171 133.127382,3.90184439 C132.04576,5.05926878 131.450109,6.62384927 131.450109,8.30724927 C131.450109,9.99064927 132.04576,11.5552298 133.127382,12.7126541 C134.228138,13.8908395 135.742283,14.53962 137.390901,14.53962 C139.553607,14.53962 141.297084,13.4412346 142.233723,11.5088883 L142.233723,14.0728688 C142.233723,15.5132541 142.186653,17.1361322 141.624598,18.1640785 C140.873004,19.5279078 139.458479,20.2790102 137.641522,20.2790102 C135.219932,20.2790102 133.549216,18.9508639 132.854394,17.8133663 L132.802114,17.7280054 L132.240598,18.1625029 L132.289644,18.2361859 C132.713184,18.8718054 134.350843,20.9457712 137.641522,20.9457712 C139.715298,20.9457712 141.298611,20.1181127 142.220518,18.5513078 C142.876714,17.4138102 142.931689,15.6293859 142.931689,14.0461761 L142.931689,8.38482488 L142.932318,8.35182976 C142.932677,8.33700049 142.933126,8.32217122 142.933126,8.30724927 C142.933126,4.63774683 140.654093,2.07497122 137.390901,2.07497122" id="Fill-22"></path>
                </g>
            </g>
        </g>
    </g>
</svg>